name ./resultDataOpenSim/trcMotMarkerGrf/sub09/grf-03-08.mot
datacolumns 19
datarows 17
range 0.96800000 1.03200000
endheader

                time	     ground_force_vx	     ground_force_vy	     ground_force_vz	     ground_force_px	     ground_force_py	     ground_force_pz	   l_ground_force_vx	   l_ground_force_vy	   l_ground_force_vz	   l_ground_force_px	   l_ground_force_py	   l_ground_force_pz	     ground_torque_x	     ground_torque_y	     ground_torque_z	   l_ground_torque_x	   l_ground_torque_y	   l_ground_torque_z	
          0.96800000	          0.00000000	          0.00000000	          0.00000000	          0.00000000	          0.00000000	          0.00000000	        -10.97428701	        405.06056200	         15.01517761	          0.14315880	         -0.05000000	          0.02336387	          0.00000000	          0.00000000	          0.00000000	          0.00000000	         -0.81885934	          0.00000000	
          0.97200000	          0.00000000	          0.00000000	          0.00000000	          0.00000000	          0.00000000	          0.00000000	         -8.17728993	        407.88582033	         15.59978225	          0.14384194	         -0.05000000	          0.02355073	          0.00000000	          0.00000000	          0.00000000	          0.00000000	         -0.96972375	          0.00000000	
          0.97600000	          0.00000000	          0.00000000	          0.00000000	          0.00000000	          0.00000000	          0.00000000	         -4.90679268	        411.30615976	         16.17653088	          0.14450402	         -0.05000000	          0.02377927	          0.00000000	          0.00000000	          0.00000000	          0.00000000	         -1.12682012	          0.00000000	
          0.98000000	          0.00000000	          0.00000000	          0.00000000	          0.00000000	          0.00000000	          0.00000000	         -1.17448400	        415.32637476	         16.70615444	          0.14514502	         -0.05000000	          0.02403244	          0.00000000	          0.00000000	          0.00000000	          0.00000000	         -1.29416920	          0.00000000	
          0.98400000	          0.00000000	          0.00000000	          0.00000000	          0.00000000	          0.00000000	          0.00000000	          2.97297229	        419.98321769	         17.13875790	          0.14579005	         -0.05000000	          0.02430186	          0.00000000	          0.00000000	          0.00000000	          0.00000000	         -1.47666923	          0.00000000	
          0.98800000	          0.00000000	          0.00000000	          0.00000000	          0.00000000	          0.00000000	          0.00000000	          7.44148255	        425.35931434	         17.42736646	          0.14644165	         -0.05000000	          0.02458149	          0.00000000	          0.00000000	          0.00000000	          0.00000000	         -1.67827489	          0.00000000	
          0.99200000	          0.00000000	          0.00000000	          0.00000000	          0.00000000	          0.00000000	          0.00000000	         12.10840169	        431.56901203	         17.53937005	          0.14707572	         -0.05000000	          0.02485759	          0.00000000	          0.00000000	          0.00000000	          0.00000000	         -1.90016413	          0.00000000	
          0.99600000	          0.00000000	          0.00000000	          0.00000000	          0.00000000	          0.00000000	          0.00000000	         16.84514248	        438.74980469	         17.46620085	          0.14763657	         -0.05000000	          0.02511161	          0.00000000	          0.00000000	          0.00000000	          0.00000000	         -2.13958893	          0.00000000	
          1.00000000	          0.00000000	          0.00000000	          0.00000000	          0.00000000	          0.00000000	          0.00000000	         21.52763282	        447.06951400	         17.23520333	          0.14806973	         -0.05000000	          0.02533875	          0.00000000	          0.00000000	          0.00000000	          0.00000000	         -2.38993085	          0.00000000	
          1.00400000	          0.00000000	          0.00000000	          0.00000000	          0.00000000	          0.00000000	          0.00000000	         26.04129793	        456.67091664	         16.90883788	          0.14833989	         -0.05000000	          0.02553341	          0.00000000	          0.00000000	          0.00000000	          0.00000000	         -2.64203515	          0.00000000	
          1.00800000	          0.00000000	          0.00000000	          0.00000000	          0.00000000	          0.00000000	          0.00000000	         30.28383299	        467.54820623	         16.55896137	          0.14845945	         -0.05000000	          0.02568140	          0.00000000	          0.00000000	          0.00000000	          0.00000000	         -2.88637060	          0.00000000	
          1.01200000	          0.00000000	          0.00000000	          0.00000000	          0.00000000	          0.00000000	          0.00000000	         34.16789089	        479.49838506	         16.23440390	          0.14848813	         -0.05000000	          0.02577546	          0.00000000	          0.00000000	          0.00000000	          0.00000000	         -3.11517225	          0.00000000	
          1.01600000	          0.00000000	          0.00000000	          0.00000000	          0.00000000	          0.00000000	          0.00000000	         37.63165003	        492.25104681	         15.95006169	          0.14850347	         -0.05000000	          0.02582622	          0.00000000	          0.00000000	          0.00000000	          0.00000000	         -3.32368934	          0.00000000	
          1.02000000	          0.00000000	          0.00000000	          0.00000000	          0.00000000	          0.00000000	          0.00000000	         40.66220534	        505.64666818	         15.70490556	          0.14854944	         -0.05000000	          0.02585663	          0.00000000	          0.00000000	          0.00000000	          0.00000000	         -3.51010288	          0.00000000	
          1.02400000	          0.00000000	          0.00000000	          0.00000000	          0.00000000	          0.00000000	          0.00000000	         43.31517500	        519.64639511	         15.50566650	          0.14864033	         -0.05000000	          0.02588916	          0.00000000	          0.00000000	          0.00000000	          0.00000000	         -3.67438363	          0.00000000	
          1.02800000	          0.00000000	          0.00000000	          0.00000000	          0.00000000	          0.00000000	          0.00000000	         45.70657476	        534.20396896	         15.37187525	          0.14879950	         -0.05000000	          0.02593930	          0.00000000	          0.00000000	          0.00000000	          0.00000000	         -3.81686201	          0.00000000	
          1.03200000	          0.00000000	          0.00000000	          0.00000000	          0.00000000	          0.00000000	          0.00000000	         47.97721579	        549.18818303	         15.33336807	          0.14907271	         -0.05000000	          0.02602130	          0.00000000	          0.00000000	          0.00000000	          0.00000000	         -3.93730083	          0.00000000	
